<?xml version="1.0" encoding="UTF-8" standalone="no"?>
<!DOCTYPE svg PUBLIC "-//W3C//DTD SVG 1.1//EN"
 "http://www.w3.org/Graphics/SVG/1.1/DTD/svg11.dtd">
<!-- Generated by graphviz version 11.0.0 (0)
 -->
<!-- Title: AST Pages: 1 -->
<svg width="1800pt" height="980pt"
 viewBox="0.00 0.00 1800.00 980.00" xmlns="http://www.w3.org/2000/svg" xmlns:xlink="http://www.w3.org/1999/xlink">
<g id="graph0" class="graph" transform="scale(1 1) rotate(0) translate(4 976)">
<title>AST</title>
<polygon fill="white" stroke="none" points="-4,4 -4,-976 1796,-976 1796,4 -4,4"/>
<!-- Программа&#45;1 -->
<g id="node1" class="node">
<title>Программа&#45;1</title>
<polygon fill="none" stroke="black" points="945.38,-972 844.62,-972 844.62,-936 945.38,-936 945.38,-972"/>
<text text-anchor="middle" x="895" y="-949.33" font-family="Times,serif" font-size="14.00">Программа</text>
</g>
<!-- Блок&#45;2 -->
<g id="node2" class="node">
<title>Блок&#45;2</title>
<polygon fill="none" stroke="black" points="922,-900 868,-900 868,-864 922,-864 922,-900"/>
<text text-anchor="middle" x="895" y="-877.33" font-family="Times,serif" font-size="14.00">Блок</text>
</g>
<!-- Программа&#45;1&#45;&gt;Блок&#45;2 -->
<g id="edge67" class="edge">
<title>Программа&#45;1&#45;&gt;Блок&#45;2</title>
<path fill="none" stroke="black" d="M895,-935.7C895,-928.41 895,-919.73 895,-911.54"/>
<polygon fill="black" stroke="black" points="898.5,-911.62 895,-901.62 891.5,-911.62 898.5,-911.62"/>
</g>
<!-- begin&#45;3 -->
<g id="node3" class="node">
<title>begin&#45;3</title>
<ellipse fill="none" stroke="black" cx="759" cy="-810" rx="39.11" ry="18"/>
<text text-anchor="middle" x="759" y="-805.33" font-family="Times,serif" font-size="14.00">begin</text>
</g>
<!-- Блок&#45;2&#45;&gt;begin&#45;3 -->
<g id="edge1" class="edge">
<title>Блок&#45;2&#45;&gt;begin&#45;3</title>
<path fill="none" stroke="black" d="M867.81,-867C846.7,-856.14 817.27,-840.99 794.34,-829.19"/>
<polygon fill="black" stroke="black" points="796.15,-826.18 785.66,-824.72 792.95,-832.41 796.15,-826.18"/>
</g>
<!-- Список операторов&#45;4 -->
<g id="node4" class="node">
<title>Список операторов&#45;4</title>
<polygon fill="none" stroke="black" points="973.88,-828 816.12,-828 816.12,-792 973.88,-792 973.88,-828"/>
<text text-anchor="middle" x="895" y="-805.33" font-family="Times,serif" font-size="14.00">Список операторов</text>
</g>
<!-- Блок&#45;2&#45;&gt;Список операторов&#45;4 -->
<g id="edge65" class="edge">
<title>Блок&#45;2&#45;&gt;Список операторов&#45;4</title>
<path fill="none" stroke="black" d="M895,-863.7C895,-856.41 895,-847.73 895,-839.54"/>
<polygon fill="black" stroke="black" points="898.5,-839.62 895,-829.62 891.5,-839.62 898.5,-839.62"/>
</g>
<!-- end&#45;68 -->
<g id="node68" class="node">
<title>end&#45;68</title>
<ellipse fill="none" stroke="black" cx="1022" cy="-810" rx="29.64" ry="18"/>
<text text-anchor="middle" x="1022" y="-805.33" font-family="Times,serif" font-size="14.00">end</text>
</g>
<!-- Блок&#45;2&#45;&gt;end&#45;68 -->
<g id="edge66" class="edge">
<title>Блок&#45;2&#45;&gt;end&#45;68</title>
<path fill="none" stroke="black" d="M922.24,-865.98C942.32,-854.92 969.67,-839.84 990.65,-828.28"/>
<polygon fill="black" stroke="black" points="992.29,-831.37 999.35,-823.48 988.91,-825.24 992.29,-831.37"/>
</g>
<!-- Оператор&#45;5 -->
<g id="node5" class="node">
<title>Оператор&#45;5</title>
<polygon fill="none" stroke="black" points="636.25,-756 549.75,-756 549.75,-720 636.25,-720 636.25,-756"/>
<text text-anchor="middle" x="593" y="-733.33" font-family="Times,serif" font-size="14.00">Оператор</text>
</g>
<!-- Список операторов&#45;4&#45;&gt;Оператор&#45;5 -->
<g id="edge16" class="edge">
<title>Список операторов&#45;4&#45;&gt;Оператор&#45;5</title>
<path fill="none" stroke="black" d="M819.57,-791.52C766.2,-779.15 695.85,-762.84 647.79,-751.7"/>
<polygon fill="black" stroke="black" points="648.69,-748.31 638.15,-749.47 647.1,-755.13 648.69,-748.31"/>
</g>
<!-- ;&#45;20 -->
<g id="node20" class="node">
<title>;&#45;20</title>
<ellipse fill="none" stroke="black" cx="763" cy="-738" rx="27" ry="18"/>
<text text-anchor="middle" x="763" y="-733.33" font-family="Times,serif" font-size="14.00">;</text>
</g>
<!-- Список операторов&#45;4&#45;&gt;;&#45;20 -->
<g id="edge17" class="edge">
<title>Список операторов&#45;4&#45;&gt;;&#45;20</title>
<path fill="none" stroke="black" d="M862.03,-791.52C841.09,-780.41 814.18,-766.14 793.69,-755.28"/>
<polygon fill="black" stroke="black" points="795.44,-752.24 784.97,-750.65 792.16,-758.43 795.44,-752.24"/>
</g>
<!-- Оператор&#45;21 -->
<g id="node21" class="node">
<title>Оператор&#45;21</title>
<polygon fill="none" stroke="black" points="894.25,-756 807.75,-756 807.75,-720 894.25,-720 894.25,-756"/>
<text text-anchor="middle" x="851" y="-733.33" font-family="Times,serif" font-size="14.00">Оператор</text>
</g>
<!-- Список операторов&#45;4&#45;&gt;Оператор&#45;21 -->
<g id="edge47" class="edge">
<title>Список операторов&#45;4&#45;&gt;Оператор&#45;21</title>
<path fill="none" stroke="black" d="M884.12,-791.7C879.22,-783.9 873.32,-774.51 867.86,-765.83"/>
<polygon fill="black" stroke="black" points="870.84,-763.99 862.56,-757.39 864.92,-767.71 870.84,-763.99"/>
</g>
<!-- ;&#45;51 -->
<g id="node51" class="node">
<title>;&#45;51</title>
<ellipse fill="none" stroke="black" cx="939" cy="-738" rx="27" ry="18"/>
<text text-anchor="middle" x="939" y="-733.33" font-family="Times,serif" font-size="14.00">;</text>
</g>
<!-- Список операторов&#45;4&#45;&gt;;&#45;51 -->
<g id="edge48" class="edge">
<title>Список операторов&#45;4&#45;&gt;;&#45;51</title>
<path fill="none" stroke="black" d="M905.88,-791.7C910.98,-783.58 917.17,-773.74 922.81,-764.76"/>
<polygon fill="black" stroke="black" points="925.69,-766.75 928.05,-756.43 919.76,-763.03 925.69,-766.75"/>
</g>
<!-- Оператор&#45;52 -->
<g id="node52" class="node">
<title>Оператор&#45;52</title>
<polygon fill="none" stroke="black" points="1070.25,-756 983.75,-756 983.75,-720 1070.25,-720 1070.25,-756"/>
<text text-anchor="middle" x="1027" y="-733.33" font-family="Times,serif" font-size="14.00">Оператор</text>
</g>
<!-- Список операторов&#45;4&#45;&gt;Оператор&#45;52 -->
<g id="edge63" class="edge">
<title>Список операторов&#45;4&#45;&gt;Оператор&#45;52</title>
<path fill="none" stroke="black" d="M927.97,-791.52C945.03,-782.47 966.05,-771.32 984.34,-761.62"/>
<polygon fill="black" stroke="black" points="985.92,-764.75 993.11,-756.97 982.64,-758.56 985.92,-764.75"/>
</g>
<!-- ;&#45;67 -->
<g id="node67" class="node">
<title>;&#45;67</title>
<ellipse fill="none" stroke="black" cx="1115" cy="-738" rx="27" ry="18"/>
<text text-anchor="middle" x="1115" y="-733.33" font-family="Times,serif" font-size="14.00">;</text>
</g>
<!-- Список операторов&#45;4&#45;&gt;;&#45;67 -->
<g id="edge64" class="edge">
<title>Список операторов&#45;4&#45;&gt;;&#45;67</title>
<path fill="none" stroke="black" d="M965.33,-791.59C999.98,-782.3 1042.14,-769.91 1079,-756 1080.54,-755.42 1082.1,-754.8 1083.66,-754.16"/>
<polygon fill="black" stroke="black" points="1084.79,-757.48 1092.54,-750.25 1081.98,-751.08 1084.79,-757.48"/>
</g>
<!-- Операция присваивания&#45;6 -->
<g id="node6" class="node">
<title>Операция присваивания&#45;6</title>
<polygon fill="none" stroke="black" points="622.38,-684 425.62,-684 425.62,-648 622.38,-648 622.38,-684"/>
<text text-anchor="middle" x="524" y="-661.33" font-family="Times,serif" font-size="14.00">Операция присваивания</text>
</g>
<!-- Оператор&#45;5&#45;&gt;Операция присваивания&#45;6 -->
<g id="edge15" class="edge">
<title>Оператор&#45;5&#45;&gt;Операция присваивания&#45;6</title>
<path fill="none" stroke="black" d="M575.94,-719.7C567.76,-711.39 557.79,-701.28 548.78,-692.14"/>
<polygon fill="black" stroke="black" points="551.44,-689.85 541.92,-685.18 546.45,-694.76 551.44,-689.85"/>
</g>
<!-- a&#45;7 -->
<g id="node7" class="node">
<title>a&#45;7</title>
<ellipse fill="none" stroke="black" cx="404" cy="-594" rx="27" ry="18"/>
<text text-anchor="middle" x="404" y="-589.33" font-family="Times,serif" font-size="14.00">a</text>
</g>
<!-- Операция присваивания&#45;6&#45;&gt;a&#45;7 -->
<g id="edge2" class="edge">
<title>Операция присваивания&#45;6&#45;&gt;a&#45;7</title>
<path fill="none" stroke="black" d="M494.03,-647.52C475.61,-636.77 452.09,-623.05 433.72,-612.33"/>
<polygon fill="black" stroke="black" points="435.54,-609.35 425.14,-607.33 432.02,-615.39 435.54,-609.35"/>
</g>
<!-- =&#45;8 -->
<g id="node8" class="node">
<title>=&#45;8</title>
<ellipse fill="none" stroke="black" cx="476" cy="-594" rx="27" ry="18"/>
<text text-anchor="middle" x="476" y="-589.33" font-family="Times,serif" font-size="14.00">=</text>
</g>
<!-- Операция присваивания&#45;6&#45;&gt;=&#45;8 -->
<g id="edge3" class="edge">
<title>Операция присваивания&#45;6&#45;&gt;=&#45;8</title>
<path fill="none" stroke="black" d="M512.13,-647.7C506.43,-639.37 499.47,-629.23 493.2,-620.08"/>
<polygon fill="black" stroke="black" points="496.14,-618.19 487.6,-611.92 490.37,-622.15 496.14,-618.19"/>
</g>
<!-- Выражение&#45;9 -->
<g id="node9" class="node">
<title>Выражение&#45;9</title>
<polygon fill="none" stroke="black" points="623.12,-612 520.88,-612 520.88,-576 623.12,-576 623.12,-612"/>
<text text-anchor="middle" x="572" y="-589.33" font-family="Times,serif" font-size="14.00">Выражение</text>
</g>
<!-- Операция присваивания&#45;6&#45;&gt;Выражение&#45;9 -->
<g id="edge14" class="edge">
<title>Операция присваивания&#45;6&#45;&gt;Выражение&#45;9</title>
<path fill="none" stroke="black" d="M535.87,-647.7C541.27,-639.81 547.79,-630.3 553.8,-621.55"/>
<polygon fill="black" stroke="black" points="556.65,-623.58 559.42,-613.35 550.87,-619.62 556.65,-623.58"/>
</g>
<!-- Логическое выражение&#45;10 -->
<g id="node10" class="node">
<title>Логическое выражение&#45;10</title>
<polygon fill="none" stroke="black" points="650.75,-540 459.25,-540 459.25,-504 650.75,-504 650.75,-540"/>
<text text-anchor="middle" x="555" y="-517.33" font-family="Times,serif" font-size="14.00">Логическое выражение</text>
</g>
<!-- Выражение&#45;9&#45;&gt;Логическое выражение&#45;10 -->
<g id="edge13" class="edge">
<title>Выражение&#45;9&#45;&gt;Логическое выражение&#45;10</title>
<path fill="none" stroke="black" d="M567.8,-575.7C566.01,-568.32 563.87,-559.52 561.86,-551.25"/>
<polygon fill="black" stroke="black" points="565.27,-550.47 559.51,-541.58 558.47,-552.12 565.27,-550.47"/>
</g>
<!-- Логический одночлен&#45;11 -->
<g id="node11" class="node">
<title>Логический одночлен&#45;11</title>
<polygon fill="none" stroke="black" points="498,-468 320,-468 320,-432 498,-432 498,-468"/>
<text text-anchor="middle" x="409" y="-445.32" font-family="Times,serif" font-size="14.00">Логический одночлен</text>
</g>
<!-- Логическое выражение&#45;10&#45;&gt;Логический одночлен&#45;11 -->
<g id="edge12" class="edge">
<title>Логическое выражение&#45;10&#45;&gt;Логический одночлен&#45;11</title>
<path fill="none" stroke="black" d="M518.53,-503.52C499.47,-494.38 475.94,-483.09 455.57,-473.33"/>
<polygon fill="black" stroke="black" points="457.15,-470.2 446.62,-469.04 454.12,-476.52 457.15,-470.2"/>
</g>
<!-- Вторичное логическое выражение&#45;12 -->
<g id="node12" class="node">
<title>Вторичное логическое выражение&#45;12</title>
<polygon fill="none" stroke="black" points="272.88,-396 1.12,-396 1.12,-360 272.88,-360 272.88,-396"/>
<text text-anchor="middle" x="137" y="-373.32" font-family="Times,serif" font-size="14.00">Вторичное логическое выражение</text>
</g>
<!-- Логический одночлен&#45;11&#45;&gt;Вторичное логическое выражение&#45;12 -->
<g id="edge6" class="edge">
<title>Логический одночлен&#45;11&#45;&gt;Вторичное логическое выражение&#45;12</title>
<path fill="none" stroke="black" d="M341.06,-431.52C302.95,-421.71 255.22,-409.43 215.51,-399.21"/>
<polygon fill="black" stroke="black" points="216.56,-395.86 206.01,-396.76 214.82,-402.64 216.56,-395.86"/>
</g>
<!-- &amp;&#45;15 -->
<g id="node15" class="node">
<title>&amp;&#45;15</title>
<ellipse fill="none" stroke="black" cx="318" cy="-378" rx="27" ry="18"/>
<text text-anchor="middle" x="318" y="-373.32" font-family="Times,serif" font-size="14.00">&amp;</text>
</g>
<!-- Логический одночлен&#45;11&#45;&gt;&amp;&#45;15 -->
<g id="edge7" class="edge">
<title>Логический одночлен&#45;11&#45;&gt;&amp;&#45;15</title>
<path fill="none" stroke="black" d="M386.51,-431.7C373.59,-421.76 357.32,-409.25 343.88,-398.91"/>
<polygon fill="black" stroke="black" points="346.36,-396.4 336.3,-393.08 342.09,-401.95 346.36,-396.4"/>
</g>
<!-- Вторичное логическое выражение&#45;16 -->
<g id="node16" class="node">
<title>Вторичное логическое выражение&#45;16</title>
<polygon fill="none" stroke="black" points="634.88,-396 363.12,-396 363.12,-360 634.88,-360 634.88,-396"/>
<text text-anchor="middle" x="499" y="-373.32" font-family="Times,serif" font-size="14.00">Вторичное логическое выражение</text>
</g>
<!-- Логический одночлен&#45;11&#45;&gt;Вторичное логическое выражение&#45;16 -->
<g id="edge11" class="edge">
<title>Логический одночлен&#45;11&#45;&gt;Вторичное логическое выражение&#45;16</title>
<path fill="none" stroke="black" d="M431.25,-431.7C442.28,-423.11 455.79,-412.61 467.84,-403.24"/>
<polygon fill="black" stroke="black" points="469.76,-406.18 475.5,-397.28 465.46,-400.65 469.76,-406.18"/>
</g>
<!-- Первичное логическое выражение&#45;13 -->
<g id="node13" class="node">
<title>Первичное логическое выражение&#45;13</title>
<polygon fill="none" stroke="black" points="274,-324 0,-324 0,-288 274,-288 274,-324"/>
<text text-anchor="middle" x="137" y="-301.32" font-family="Times,serif" font-size="14.00">Первичное логическое выражение</text>
</g>
<!-- Вторичное логическое выражение&#45;12&#45;&gt;Первичное логическое выражение&#45;13 -->
<g id="edge5" class="edge">
<title>Вторичное логическое выражение&#45;12&#45;&gt;Первичное логическое выражение&#45;13</title>
<path fill="none" stroke="black" d="M137,-359.7C137,-352.41 137,-343.73 137,-335.54"/>
<polygon fill="black" stroke="black" points="140.5,-335.62 137,-325.62 133.5,-335.62 140.5,-335.62"/>
</g>
<!-- true&#45;14 -->
<g id="node14" class="node">
<title>true&#45;14</title>
<ellipse fill="none" stroke="black" cx="137" cy="-234" rx="32.27" ry="18"/>
<text text-anchor="middle" x="137" y="-229.32" font-family="Times,serif" font-size="14.00">true</text>
</g>
<!-- Первичное логическое выражение&#45;13&#45;&gt;true&#45;14 -->
<g id="edge4" class="edge">
<title>Первичное логическое выражение&#45;13&#45;&gt;true&#45;14</title>
<path fill="none" stroke="black" d="M137,-287.7C137,-280.41 137,-271.73 137,-263.54"/>
<polygon fill="black" stroke="black" points="140.5,-263.62 137,-253.62 133.5,-263.62 140.5,-263.62"/>
</g>
<!-- ~&#45;17 -->
<g id="node17" class="node">
<title>~&#45;17</title>
<ellipse fill="none" stroke="black" cx="343" cy="-306" rx="27" ry="18"/>
<text text-anchor="middle" x="343" y="-301.32" font-family="Times,serif" font-size="14.00">~</text>
</g>
<!-- Вторичное логическое выражение&#45;16&#45;&gt;~&#45;17 -->
<g id="edge8" class="edge">
<title>Вторичное логическое выражение&#45;16&#45;&gt;~&#45;17</title>
<path fill="none" stroke="black" d="M458.89,-359.59C435.52,-349.36 405.52,-336.11 379,-324 377.69,-323.4 376.36,-322.79 375.01,-322.17"/>
<polygon fill="black" stroke="black" points="376.57,-319.03 366.03,-317.98 373.61,-325.38 376.57,-319.03"/>
</g>
<!-- Первичное логическое выражение&#45;18 -->
<g id="node18" class="node">
<title>Первичное логическое выражение&#45;18</title>
<polygon fill="none" stroke="black" points="662,-324 388,-324 388,-288 662,-288 662,-324"/>
<text text-anchor="middle" x="525" y="-301.32" font-family="Times,serif" font-size="14.00">Первичное логическое выражение</text>
</g>
<!-- Вторичное логическое выражение&#45;16&#45;&gt;Первичное логическое выражение&#45;18 -->
<g id="edge10" class="edge">
<title>Вторичное логическое выражение&#45;16&#45;&gt;Первичное логическое выражение&#45;18</title>
<path fill="none" stroke="black" d="M505.43,-359.7C508.23,-352.15 511.58,-343.12 514.72,-334.68"/>
<polygon fill="black" stroke="black" points="517.92,-336.12 518.12,-325.52 511.36,-333.68 517.92,-336.12"/>
</g>
<!-- false&#45;19 -->
<g id="node19" class="node">
<title>false&#45;19</title>
<ellipse fill="none" stroke="black" cx="525" cy="-234" rx="34.9" ry="18"/>
<text text-anchor="middle" x="525" y="-229.32" font-family="Times,serif" font-size="14.00">false</text>
</g>
<!-- Первичное логическое выражение&#45;18&#45;&gt;false&#45;19 -->
<g id="edge9" class="edge">
<title>Первичное логическое выражение&#45;18&#45;&gt;false&#45;19</title>
<path fill="none" stroke="black" d="M525,-287.7C525,-280.41 525,-271.73 525,-263.54"/>
<polygon fill="black" stroke="black" points="528.5,-263.62 525,-253.62 521.5,-263.62 528.5,-263.62"/>
</g>
<!-- Блок&#45;22 -->
<g id="node22" class="node">
<title>Блок&#45;22</title>
<polygon fill="none" stroke="black" points="878,-684 824,-684 824,-648 878,-648 878,-684"/>
<text text-anchor="middle" x="851" y="-661.33" font-family="Times,serif" font-size="14.00">Блок</text>
</g>
<!-- Оператор&#45;21&#45;&gt;Блок&#45;22 -->
<g id="edge46" class="edge">
<title>Оператор&#45;21&#45;&gt;Блок&#45;22</title>
<path fill="none" stroke="black" d="M851,-719.7C851,-712.41 851,-703.73 851,-695.54"/>
<polygon fill="black" stroke="black" points="854.5,-695.62 851,-685.62 847.5,-695.62 854.5,-695.62"/>
</g>
<!-- begin&#45;23 -->
<g id="node23" class="node">
<title>begin&#45;23</title>
<ellipse fill="none" stroke="black" cx="715" cy="-594" rx="39.11" ry="18"/>
<text text-anchor="middle" x="715" y="-589.33" font-family="Times,serif" font-size="14.00">begin</text>
</g>
<!-- Блок&#45;22&#45;&gt;begin&#45;23 -->
<g id="edge18" class="edge">
<title>Блок&#45;22&#45;&gt;begin&#45;23</title>
<path fill="none" stroke="black" d="M823.81,-651C802.7,-640.14 773.27,-624.99 750.34,-613.19"/>
<polygon fill="black" stroke="black" points="752.15,-610.18 741.66,-608.72 748.95,-616.41 752.15,-610.18"/>
</g>
<!-- Список операторов&#45;24 -->
<g id="node24" class="node">
<title>Список операторов&#45;24</title>
<polygon fill="none" stroke="black" points="929.88,-612 772.12,-612 772.12,-576 929.88,-576 929.88,-612"/>
<text text-anchor="middle" x="851" y="-589.33" font-family="Times,serif" font-size="14.00">Список операторов</text>
</g>
<!-- Блок&#45;22&#45;&gt;Список операторов&#45;24 -->
<g id="edge44" class="edge">
<title>Блок&#45;22&#45;&gt;Список операторов&#45;24</title>
<path fill="none" stroke="black" d="M851,-647.7C851,-640.41 851,-631.73 851,-623.54"/>
<polygon fill="black" stroke="black" points="854.5,-623.62 851,-613.62 847.5,-623.62 854.5,-623.62"/>
</g>
<!-- end&#45;50 -->
<g id="node50" class="node">
<title>end&#45;50</title>
<ellipse fill="none" stroke="black" cx="978" cy="-594" rx="29.64" ry="18"/>
<text text-anchor="middle" x="978" y="-589.33" font-family="Times,serif" font-size="14.00">end</text>
</g>
<!-- Блок&#45;22&#45;&gt;end&#45;50 -->
<g id="edge45" class="edge">
<title>Блок&#45;22&#45;&gt;end&#45;50</title>
<path fill="none" stroke="black" d="M878.24,-649.98C898.32,-638.92 925.67,-623.84 946.65,-612.28"/>
<polygon fill="black" stroke="black" points="948.29,-615.37 955.35,-607.48 944.91,-609.24 948.29,-615.37"/>
</g>
<!-- Оператор&#45;25 -->
<g id="node25" class="node">
<title>Оператор&#45;25</title>
<polygon fill="none" stroke="black" points="803.25,-540 716.75,-540 716.75,-504 803.25,-504 803.25,-540"/>
<text text-anchor="middle" x="760" y="-517.33" font-family="Times,serif" font-size="14.00">Оператор</text>
</g>
<!-- Список операторов&#45;24&#45;&gt;Оператор&#45;25 -->
<g id="edge28" class="edge">
<title>Список операторов&#45;24&#45;&gt;Оператор&#45;25</title>
<path fill="none" stroke="black" d="M828.51,-575.7C817.35,-567.11 803.69,-556.61 791.51,-547.24"/>
<polygon fill="black" stroke="black" points="793.81,-544.59 783.75,-541.27 789.54,-550.14 793.81,-544.59"/>
</g>
<!-- ;&#45;35 -->
<g id="node35" class="node">
<title>;&#45;35</title>
<ellipse fill="none" stroke="black" cx="851" cy="-522" rx="27" ry="18"/>
<text text-anchor="middle" x="851" y="-517.33" font-family="Times,serif" font-size="14.00">;</text>
</g>
<!-- Список операторов&#45;24&#45;&gt;;&#45;35 -->
<g id="edge29" class="edge">
<title>Список операторов&#45;24&#45;&gt;;&#45;35</title>
<path fill="none" stroke="black" d="M851,-575.7C851,-568.41 851,-559.73 851,-551.54"/>
<polygon fill="black" stroke="black" points="854.5,-551.62 851,-541.62 847.5,-551.62 854.5,-551.62"/>
</g>
<!-- Оператор&#45;36 -->
<g id="node36" class="node">
<title>Оператор&#45;36</title>
<polygon fill="none" stroke="black" points="1026.25,-540 939.75,-540 939.75,-504 1026.25,-504 1026.25,-540"/>
<text text-anchor="middle" x="983" y="-517.33" font-family="Times,serif" font-size="14.00">Оператор</text>
</g>
<!-- Список операторов&#45;24&#45;&gt;Оператор&#45;36 -->
<g id="edge43" class="edge">
<title>Список операторов&#45;24&#45;&gt;Оператор&#45;36</title>
<path fill="none" stroke="black" d="M883.97,-575.52C901.03,-566.47 922.05,-555.32 940.34,-545.62"/>
<polygon fill="black" stroke="black" points="941.92,-548.75 949.11,-540.97 938.64,-542.56 941.92,-548.75"/>
</g>
<!-- Операция присваивания&#45;26 -->
<g id="node26" class="node">
<title>Операция присваивания&#45;26</title>
<polygon fill="none" stroke="black" points="853.38,-468 656.62,-468 656.62,-432 853.38,-432 853.38,-468"/>
<text text-anchor="middle" x="755" y="-445.32" font-family="Times,serif" font-size="14.00">Операция присваивания</text>
</g>
<!-- Оператор&#45;25&#45;&gt;Операция присваивания&#45;26 -->
<g id="edge27" class="edge">
<title>Оператор&#45;25&#45;&gt;Операция присваивания&#45;26</title>
<path fill="none" stroke="black" d="M758.76,-503.7C758.24,-496.41 757.62,-487.73 757.04,-479.54"/>
<polygon fill="black" stroke="black" points="760.53,-479.34 756.33,-469.61 753.55,-479.84 760.53,-479.34"/>
</g>
<!-- c&#45;27 -->
<g id="node27" class="node">
<title>c&#45;27</title>
<ellipse fill="none" stroke="black" cx="680" cy="-378" rx="27" ry="18"/>
<text text-anchor="middle" x="680" y="-373.32" font-family="Times,serif" font-size="14.00">c</text>
</g>
<!-- Операция присваивания&#45;26&#45;&gt;c&#45;27 -->
<g id="edge19" class="edge">
<title>Операция присваивания&#45;26&#45;&gt;c&#45;27</title>
<path fill="none" stroke="black" d="M736.46,-431.7C726.57,-422.46 714.28,-410.99 703.7,-401.12"/>
<polygon fill="black" stroke="black" points="706.1,-398.58 696.41,-394.31 701.33,-403.69 706.1,-398.58"/>
</g>
<!-- =&#45;28 -->
<g id="node28" class="node">
<title>=&#45;28</title>
<ellipse fill="none" stroke="black" cx="752" cy="-378" rx="27" ry="18"/>
<text text-anchor="middle" x="752" y="-373.32" font-family="Times,serif" font-size="14.00">=</text>
</g>
<!-- Операция присваивания&#45;26&#45;&gt;=&#45;28 -->
<g id="edge20" class="edge">
<title>Операция присваивания&#45;26&#45;&gt;=&#45;28</title>
<path fill="none" stroke="black" d="M754.26,-431.7C753.95,-424.41 753.57,-415.73 753.22,-407.54"/>
<polygon fill="black" stroke="black" points="756.72,-407.46 752.8,-397.62 749.73,-407.76 756.72,-407.46"/>
</g>
<!-- Выражение&#45;29 -->
<g id="node29" class="node">
<title>Выражение&#45;29</title>
<polygon fill="none" stroke="black" points="899.12,-396 796.88,-396 796.88,-360 899.12,-360 899.12,-396"/>
<text text-anchor="middle" x="848" y="-373.32" font-family="Times,serif" font-size="14.00">Выражение</text>
</g>
<!-- Операция присваивания&#45;26&#45;&gt;Выражение&#45;29 -->
<g id="edge26" class="edge">
<title>Операция присваивания&#45;26&#45;&gt;Выражение&#45;29</title>
<path fill="none" stroke="black" d="M777.99,-431.7C789.39,-423.11 803.35,-412.61 815.8,-403.24"/>
<polygon fill="black" stroke="black" points="817.86,-406.07 823.74,-397.26 813.65,-400.47 817.86,-406.07"/>
</g>
<!-- Логическое выражение&#45;30 -->
<g id="node30" class="node">
<title>Логическое выражение&#45;30</title>
<polygon fill="none" stroke="black" points="895.75,-324 704.25,-324 704.25,-288 895.75,-288 895.75,-324"/>
<text text-anchor="middle" x="800" y="-301.32" font-family="Times,serif" font-size="14.00">Логическое выражение</text>
</g>
<!-- Выражение&#45;29&#45;&gt;Логическое выражение&#45;30 -->
<g id="edge25" class="edge">
<title>Выражение&#45;29&#45;&gt;Логическое выражение&#45;30</title>
<path fill="none" stroke="black" d="M836.13,-359.7C830.73,-351.81 824.21,-342.3 818.2,-333.55"/>
<polygon fill="black" stroke="black" points="821.13,-331.62 812.58,-325.35 815.35,-335.58 821.13,-331.62"/>
</g>
<!-- Логический одночлен&#45;31 -->
<g id="node31" class="node">
<title>Логический одночлен&#45;31</title>
<polygon fill="none" stroke="black" points="823,-252 645,-252 645,-216 823,-216 823,-252"/>
<text text-anchor="middle" x="734" y="-229.32" font-family="Times,serif" font-size="14.00">Логический одночлен</text>
</g>
<!-- Логическое выражение&#45;30&#45;&gt;Логический одночлен&#45;31 -->
<g id="edge24" class="edge">
<title>Логическое выражение&#45;30&#45;&gt;Логический одночлен&#45;31</title>
<path fill="none" stroke="black" d="M783.69,-287.7C775.93,-279.47 766.51,-269.48 757.97,-260.42"/>
<polygon fill="black" stroke="black" points="760.57,-258.08 751.17,-253.21 755.48,-262.88 760.57,-258.08"/>
</g>
<!-- Вторичное логическое выражение&#45;32 -->
<g id="node32" class="node">
<title>Вторичное логическое выражение&#45;32</title>
<polygon fill="none" stroke="black" points="845.88,-180 574.12,-180 574.12,-144 845.88,-144 845.88,-180"/>
<text text-anchor="middle" x="710" y="-157.32" font-family="Times,serif" font-size="14.00">Вторичное логическое выражение</text>
</g>
<!-- Логический одночлен&#45;31&#45;&gt;Вторичное логическое выражение&#45;32 -->
<g id="edge23" class="edge">
<title>Логический одночлен&#45;31&#45;&gt;Вторичное логическое выражение&#45;32</title>
<path fill="none" stroke="black" d="M728.07,-215.7C725.51,-208.24 722.45,-199.32 719.59,-190.97"/>
<polygon fill="black" stroke="black" points="722.91,-189.86 716.36,-181.54 716.29,-192.13 722.91,-189.86"/>
</g>
<!-- Первичное логическое выражение&#45;33 -->
<g id="node33" class="node">
<title>Первичное логическое выражение&#45;33</title>
<polygon fill="none" stroke="black" points="846,-108 572,-108 572,-72 846,-72 846,-108"/>
<text text-anchor="middle" x="709" y="-85.33" font-family="Times,serif" font-size="14.00">Первичное логическое выражение</text>
</g>
<!-- Вторичное логическое выражение&#45;32&#45;&gt;Первичное логическое выражение&#45;33 -->
<g id="edge22" class="edge">
<title>Вторичное логическое выражение&#45;32&#45;&gt;Первичное логическое выражение&#45;33</title>
<path fill="none" stroke="black" d="M709.75,-143.7C709.65,-136.41 709.52,-127.73 709.41,-119.54"/>
<polygon fill="black" stroke="black" points="712.91,-119.57 709.27,-109.62 705.91,-119.67 712.91,-119.57"/>
</g>
<!-- true&#45;34 -->
<g id="node34" class="node">
<title>true&#45;34</title>
<ellipse fill="none" stroke="black" cx="709" cy="-18" rx="32.27" ry="18"/>
<text text-anchor="middle" x="709" y="-13.32" font-family="Times,serif" font-size="14.00">true</text>
</g>
<!-- Первичное логическое выражение&#45;33&#45;&gt;true&#45;34 -->
<g id="edge21" class="edge">
<title>Первичное логическое выражение&#45;33&#45;&gt;true&#45;34</title>
<path fill="none" stroke="black" d="M709,-71.7C709,-64.41 709,-55.73 709,-47.54"/>
<polygon fill="black" stroke="black" points="712.5,-47.62 709,-37.62 705.5,-47.62 712.5,-47.62"/>
</g>
<!-- Операция присваивания&#45;37 -->
<g id="node37" class="node">
<title>Операция присваивания&#45;37</title>
<polygon fill="none" stroke="black" points="1103.38,-468 906.62,-468 906.62,-432 1103.38,-432 1103.38,-468"/>
<text text-anchor="middle" x="1005" y="-445.32" font-family="Times,serif" font-size="14.00">Операция присваивания</text>
</g>
<!-- Оператор&#45;36&#45;&gt;Операция присваивания&#45;37 -->
<g id="edge42" class="edge">
<title>Оператор&#45;36&#45;&gt;Операция присваивания&#45;37</title>
<path fill="none" stroke="black" d="M988.44,-503.7C990.78,-496.24 993.58,-487.32 996.21,-478.97"/>
<polygon fill="black" stroke="black" points="999.51,-480.14 999.17,-469.55 992.83,-478.04 999.51,-480.14"/>
</g>
<!-- c&#45;38 -->
<g id="node38" class="node">
<title>c&#45;38</title>
<ellipse fill="none" stroke="black" cx="944" cy="-378" rx="27" ry="18"/>
<text text-anchor="middle" x="944" y="-373.32" font-family="Times,serif" font-size="14.00">c</text>
</g>
<!-- Операция присваивания&#45;37&#45;&gt;c&#45;38 -->
<g id="edge30" class="edge">
<title>Операция присваивания&#45;37&#45;&gt;c&#45;38</title>
<path fill="none" stroke="black" d="M989.92,-431.7C982.33,-422.98 973,-412.28 964.75,-402.81"/>
<polygon fill="black" stroke="black" points="967.45,-400.58 958.24,-395.34 962.17,-405.18 967.45,-400.58"/>
</g>
<!-- =&#45;39 -->
<g id="node39" class="node">
<title>=&#45;39</title>
<ellipse fill="none" stroke="black" cx="1016" cy="-378" rx="27" ry="18"/>
<text text-anchor="middle" x="1016" y="-373.32" font-family="Times,serif" font-size="14.00">=</text>
</g>
<!-- Операция присваивания&#45;37&#45;&gt;=&#45;39 -->
<g id="edge31" class="edge">
<title>Операция присваивания&#45;37&#45;&gt;=&#45;39</title>
<path fill="none" stroke="black" d="M1007.72,-431.7C1008.88,-424.32 1010.26,-415.52 1011.56,-407.25"/>
<polygon fill="black" stroke="black" points="1014.98,-408.02 1013.08,-397.6 1008.07,-406.93 1014.98,-408.02"/>
</g>
<!-- Выражение&#45;40 -->
<g id="node40" class="node">
<title>Выражение&#45;40</title>
<polygon fill="none" stroke="black" points="1163.12,-396 1060.88,-396 1060.88,-360 1163.12,-360 1163.12,-396"/>
<text text-anchor="middle" x="1112" y="-373.32" font-family="Times,serif" font-size="14.00">Выражение</text>
</g>
<!-- Операция присваивания&#45;37&#45;&gt;Выражение&#45;40 -->
<g id="edge41" class="edge">
<title>Операция присваивания&#45;37&#45;&gt;Выражение&#45;40</title>
<path fill="none" stroke="black" d="M1031.72,-431.52C1045.23,-422.68 1061.81,-411.84 1076.38,-402.3"/>
<polygon fill="black" stroke="black" points="1077.9,-405.49 1084.35,-397.09 1074.06,-399.63 1077.9,-405.49"/>
</g>
<!-- Логическое выражение&#45;41 -->
<g id="node41" class="node">
<title>Логическое выражение&#45;41</title>
<polygon fill="none" stroke="black" points="1207.75,-324 1016.25,-324 1016.25,-288 1207.75,-288 1207.75,-324"/>
<text text-anchor="middle" x="1112" y="-301.32" font-family="Times,serif" font-size="14.00">Логическое выражение</text>
</g>
<!-- Выражение&#45;40&#45;&gt;Логическое выражение&#45;41 -->
<g id="edge40" class="edge">
<title>Выражение&#45;40&#45;&gt;Логическое выражение&#45;41</title>
<path fill="none" stroke="black" d="M1112,-359.7C1112,-352.41 1112,-343.73 1112,-335.54"/>
<polygon fill="black" stroke="black" points="1115.5,-335.62 1112,-325.62 1108.5,-335.62 1115.5,-335.62"/>
</g>
<!-- Логический одночлен&#45;42 -->
<g id="node42" class="node">
<title>Логический одночлен&#45;42</title>
<polygon fill="none" stroke="black" points="1247,-252 1069,-252 1069,-216 1247,-216 1247,-252"/>
<text text-anchor="middle" x="1158" y="-229.32" font-family="Times,serif" font-size="14.00">Логический одночлен</text>
</g>
<!-- Логическое выражение&#45;41&#45;&gt;Логический одночлен&#45;42 -->
<g id="edge39" class="edge">
<title>Логическое выражение&#45;41&#45;&gt;Логический одночлен&#45;42</title>
<path fill="none" stroke="black" d="M1123.37,-287.7C1128.55,-279.81 1134.8,-270.3 1140.56,-261.55"/>
<polygon fill="black" stroke="black" points="1143.36,-263.65 1145.93,-253.37 1137.51,-259.8 1143.36,-263.65"/>
</g>
<!-- Вторичное логическое выражение&#45;43 -->
<g id="node43" class="node">
<title>Вторичное логическое выражение&#45;43</title>
<polygon fill="none" stroke="black" points="1135.88,-180 864.12,-180 864.12,-144 1135.88,-144 1135.88,-180"/>
<text text-anchor="middle" x="1000" y="-157.32" font-family="Times,serif" font-size="14.00">Вторичное логическое выражение</text>
</g>
<!-- Логический одночлен&#45;42&#45;&gt;Вторичное логическое выражение&#45;43 -->
<g id="edge34" class="edge">
<title>Логический одночлен&#45;42&#45;&gt;Вторичное логическое выражение&#45;43</title>
<path fill="none" stroke="black" d="M1118.54,-215.52C1097.63,-206.25 1071.74,-194.78 1049.49,-184.93"/>
<polygon fill="black" stroke="black" points="1051.18,-181.85 1040.62,-180.99 1048.34,-188.25 1051.18,-181.85"/>
</g>
<!-- &amp;&#45;46 -->
<g id="node46" class="node">
<title>&amp;&#45;46</title>
<ellipse fill="none" stroke="black" cx="1181" cy="-162" rx="27" ry="18"/>
<text text-anchor="middle" x="1181" y="-157.32" font-family="Times,serif" font-size="14.00">&amp;</text>
</g>
<!-- Логический одночлен&#45;42&#45;&gt;&amp;&#45;46 -->
<g id="edge35" class="edge">
<title>Логический одночлен&#45;42&#45;&gt;&amp;&#45;46</title>
<path fill="none" stroke="black" d="M1163.69,-215.7C1166.14,-208.24 1169.07,-199.32 1171.81,-190.97"/>
<polygon fill="black" stroke="black" points="1175.11,-192.14 1174.91,-181.54 1168.46,-189.95 1175.11,-192.14"/>
</g>
<!-- Вторичное логическое выражение&#45;47 -->
<g id="node47" class="node">
<title>Вторичное логическое выражение&#45;47</title>
<polygon fill="none" stroke="black" points="1497.88,-180 1226.12,-180 1226.12,-144 1497.88,-144 1497.88,-180"/>
<text text-anchor="middle" x="1362" y="-157.32" font-family="Times,serif" font-size="14.00">Вторичное логическое выражение</text>
</g>
<!-- Логический одночлен&#45;42&#45;&gt;Вторичное логическое выражение&#45;47 -->
<g id="edge38" class="edge">
<title>Логический одночлен&#45;42&#45;&gt;Вторичное логическое выражение&#45;47</title>
<path fill="none" stroke="black" d="M1208.95,-215.52C1236.8,-205.96 1271.5,-194.05 1300.81,-184"/>
<polygon fill="black" stroke="black" points="1301.59,-187.43 1309.91,-180.87 1299.32,-180.81 1301.59,-187.43"/>
</g>
<!-- Первичное логическое выражение&#45;44 -->
<g id="node44" class="node">
<title>Первичное логическое выражение&#45;44</title>
<polygon fill="none" stroke="black" points="1138,-108 864,-108 864,-72 1138,-72 1138,-108"/>
<text text-anchor="middle" x="1001" y="-85.33" font-family="Times,serif" font-size="14.00">Первичное логическое выражение</text>
</g>
<!-- Вторичное логическое выражение&#45;43&#45;&gt;Первичное логическое выражение&#45;44 -->
<g id="edge33" class="edge">
<title>Вторичное логическое выражение&#45;43&#45;&gt;Первичное логическое выражение&#45;44</title>
<path fill="none" stroke="black" d="M1000.25,-143.7C1000.35,-136.41 1000.48,-127.73 1000.59,-119.54"/>
<polygon fill="black" stroke="black" points="1004.09,-119.67 1000.73,-109.62 997.09,-119.57 1004.09,-119.67"/>
</g>
<!-- a&#45;45 -->
<g id="node45" class="node">
<title>a&#45;45</title>
<ellipse fill="none" stroke="black" cx="1001" cy="-18" rx="27" ry="18"/>
<text text-anchor="middle" x="1001" y="-13.32" font-family="Times,serif" font-size="14.00">a</text>
</g>
<!-- Первичное логическое выражение&#45;44&#45;&gt;a&#45;45 -->
<g id="edge32" class="edge">
<title>Первичное логическое выражение&#45;44&#45;&gt;a&#45;45</title>
<path fill="none" stroke="black" d="M1001,-71.7C1001,-64.41 1001,-55.73 1001,-47.54"/>
<polygon fill="black" stroke="black" points="1004.5,-47.62 1001,-37.62 997.5,-47.62 1004.5,-47.62"/>
</g>
<!-- Первичное логическое выражение&#45;48 -->
<g id="node48" class="node">
<title>Первичное логическое выражение&#45;48</title>
<polygon fill="none" stroke="black" points="1499,-108 1225,-108 1225,-72 1499,-72 1499,-108"/>
<text text-anchor="middle" x="1362" y="-85.33" font-family="Times,serif" font-size="14.00">Первичное логическое выражение</text>
</g>
<!-- Вторичное логическое выражение&#45;47&#45;&gt;Первичное логическое выражение&#45;48 -->
<g id="edge37" class="edge">
<title>Вторичное логическое выражение&#45;47&#45;&gt;Первичное логическое выражение&#45;48</title>
<path fill="none" stroke="black" d="M1362,-143.7C1362,-136.41 1362,-127.73 1362,-119.54"/>
<polygon fill="black" stroke="black" points="1365.5,-119.62 1362,-109.62 1358.5,-119.62 1365.5,-119.62"/>
</g>
<!-- c&#45;49 -->
<g id="node49" class="node">
<title>c&#45;49</title>
<ellipse fill="none" stroke="black" cx="1362" cy="-18" rx="27" ry="18"/>
<text text-anchor="middle" x="1362" y="-13.32" font-family="Times,serif" font-size="14.00">c</text>
</g>
<!-- Первичное логическое выражение&#45;48&#45;&gt;c&#45;49 -->
<g id="edge36" class="edge">
<title>Первичное логическое выражение&#45;48&#45;&gt;c&#45;49</title>
<path fill="none" stroke="black" d="M1362,-71.7C1362,-64.41 1362,-55.73 1362,-47.54"/>
<polygon fill="black" stroke="black" points="1365.5,-47.62 1362,-37.62 1358.5,-47.62 1365.5,-47.62"/>
</g>
<!-- Операция присваивания&#45;53 -->
<g id="node53" class="node">
<title>Операция присваивания&#45;53</title>
<polygon fill="none" stroke="black" points="1259.38,-684 1062.62,-684 1062.62,-648 1259.38,-648 1259.38,-684"/>
<text text-anchor="middle" x="1161" y="-661.33" font-family="Times,serif" font-size="14.00">Операция присваивания</text>
</g>
<!-- Оператор&#45;52&#45;&gt;Операция присваивания&#45;53 -->
<g id="edge62" class="edge">
<title>Оператор&#45;52&#45;&gt;Операция присваивания&#45;53</title>
<path fill="none" stroke="black" d="M1060.47,-719.52C1077.87,-710.43 1099.33,-699.22 1117.95,-689.49"/>
<polygon fill="black" stroke="black" points="1119.37,-692.69 1126.62,-684.96 1116.13,-686.49 1119.37,-692.69"/>
</g>
<!-- b&#45;54 -->
<g id="node54" class="node">
<title>b&#45;54</title>
<ellipse fill="none" stroke="black" cx="1125" cy="-594" rx="27" ry="18"/>
<text text-anchor="middle" x="1125" y="-589.33" font-family="Times,serif" font-size="14.00">b</text>
</g>
<!-- Операция присваивания&#45;53&#45;&gt;b&#45;54 -->
<g id="edge49" class="edge">
<title>Операция присваивания&#45;53&#45;&gt;b&#45;54</title>
<path fill="none" stroke="black" d="M1152.1,-647.7C1148.02,-639.75 1143.08,-630.16 1138.55,-621.34"/>
<polygon fill="black" stroke="black" points="1141.68,-619.78 1134,-612.49 1135.46,-622.98 1141.68,-619.78"/>
</g>
<!-- =&#45;55 -->
<g id="node55" class="node">
<title>=&#45;55</title>
<ellipse fill="none" stroke="black" cx="1197" cy="-594" rx="27" ry="18"/>
<text text-anchor="middle" x="1197" y="-589.33" font-family="Times,serif" font-size="14.00">=</text>
</g>
<!-- Операция присваивания&#45;53&#45;&gt;=&#45;55 -->
<g id="edge50" class="edge">
<title>Операция присваивания&#45;53&#45;&gt;=&#45;55</title>
<path fill="none" stroke="black" d="M1169.9,-647.7C1173.98,-639.75 1178.92,-630.16 1183.45,-621.34"/>
<polygon fill="black" stroke="black" points="1186.54,-622.98 1188,-612.49 1180.32,-619.78 1186.54,-622.98"/>
</g>
<!-- Выражение&#45;56 -->
<g id="node56" class="node">
<title>Выражение&#45;56</title>
<polygon fill="none" stroke="black" points="1409.12,-612 1306.88,-612 1306.88,-576 1409.12,-576 1409.12,-612"/>
<text text-anchor="middle" x="1358" y="-589.33" font-family="Times,serif" font-size="14.00">Выражение</text>
</g>
<!-- Операция присваивания&#45;53&#45;&gt;Выражение&#45;56 -->
<g id="edge61" class="edge">
<title>Операция присваивания&#45;53&#45;&gt;Выражение&#45;56</title>
<path fill="none" stroke="black" d="M1210.2,-647.52C1236.98,-638 1270.31,-626.16 1298.54,-616.13"/>
<polygon fill="black" stroke="black" points="1299.41,-619.53 1307.66,-612.89 1297.06,-612.94 1299.41,-619.53"/>
</g>
<!-- Логическое выражение&#45;57 -->
<g id="node57" class="node">
<title>Логическое выражение&#45;57</title>
<polygon fill="none" stroke="black" points="1525.75,-540 1334.25,-540 1334.25,-504 1525.75,-504 1525.75,-540"/>
<text text-anchor="middle" x="1430" y="-517.33" font-family="Times,serif" font-size="14.00">Логическое выражение</text>
</g>
<!-- Выражение&#45;56&#45;&gt;Логическое выражение&#45;57 -->
<g id="edge60" class="edge">
<title>Выражение&#45;56&#45;&gt;Логическое выражение&#45;57</title>
<path fill="none" stroke="black" d="M1375.8,-575.7C1384.28,-567.45 1394.59,-557.43 1403.93,-548.35"/>
<polygon fill="black" stroke="black" points="1406.34,-550.88 1411.07,-541.4 1401.46,-545.86 1406.34,-550.88"/>
</g>
<!-- Логический одночлен&#45;58 -->
<g id="node58" class="node">
<title>Логический одночлен&#45;58</title>
<polygon fill="none" stroke="black" points="1452,-468 1274,-468 1274,-432 1452,-432 1452,-468"/>
<text text-anchor="middle" x="1363" y="-445.32" font-family="Times,serif" font-size="14.00">Логический одночлен</text>
</g>
<!-- Логическое выражение&#45;57&#45;&gt;Логический одночлен&#45;58 -->
<g id="edge54" class="edge">
<title>Логическое выражение&#45;57&#45;&gt;Логический одночлен&#45;58</title>
<path fill="none" stroke="black" d="M1413.44,-503.7C1405.57,-495.47 1396.01,-485.48 1387.33,-476.42"/>
<polygon fill="black" stroke="black" points="1389.86,-474 1380.42,-469.2 1384.8,-478.84 1389.86,-474"/>
</g>
<!-- !&#45;62 -->
<g id="node62" class="node">
<title>!&#45;62</title>
<ellipse fill="none" stroke="black" cx="1497" cy="-450" rx="27" ry="18"/>
<text text-anchor="middle" x="1497" y="-445.32" font-family="Times,serif" font-size="14.00">!</text>
</g>
<!-- Логическое выражение&#45;57&#45;&gt;!&#45;62 -->
<g id="edge55" class="edge">
<title>Логическое выражение&#45;57&#45;&gt;!&#45;62</title>
<path fill="none" stroke="black" d="M1446.56,-503.7C1455.19,-494.68 1465.86,-483.53 1475.16,-473.82"/>
<polygon fill="black" stroke="black" points="1477.46,-476.48 1481.85,-466.83 1472.4,-471.64 1477.46,-476.48"/>
</g>
<!-- Логический одночлен&#45;63 -->
<g id="node63" class="node">
<title>Логический одночлен&#45;63</title>
<polygon fill="none" stroke="black" points="1732,-468 1554,-468 1554,-432 1732,-432 1732,-468"/>
<text text-anchor="middle" x="1643" y="-445.32" font-family="Times,serif" font-size="14.00">Логический одночлен</text>
</g>
<!-- Логическое выражение&#45;57&#45;&gt;Логический одночлен&#45;63 -->
<g id="edge59" class="edge">
<title>Логическое выражение&#45;57&#45;&gt;Логический одночлен&#45;63</title>
<path fill="none" stroke="black" d="M1483.2,-503.52C1512.41,-493.92 1548.83,-481.95 1579.51,-471.86"/>
<polygon fill="black" stroke="black" points="1580.26,-475.3 1588.67,-468.85 1578.08,-468.65 1580.26,-475.3"/>
</g>
<!-- Вторичное логическое выражение&#45;59 -->
<g id="node59" class="node">
<title>Вторичное логическое выражение&#45;59</title>
<polygon fill="none" stroke="black" points="1498.88,-396 1227.12,-396 1227.12,-360 1498.88,-360 1498.88,-396"/>
<text text-anchor="middle" x="1363" y="-373.32" font-family="Times,serif" font-size="14.00">Вторичное логическое выражение</text>
</g>
<!-- Логический одночлен&#45;58&#45;&gt;Вторичное логическое выражение&#45;59 -->
<g id="edge53" class="edge">
<title>Логический одночлен&#45;58&#45;&gt;Вторичное логическое выражение&#45;59</title>
<path fill="none" stroke="black" d="M1363,-431.7C1363,-424.41 1363,-415.73 1363,-407.54"/>
<polygon fill="black" stroke="black" points="1366.5,-407.62 1363,-397.62 1359.5,-407.62 1366.5,-407.62"/>
</g>
<!-- Первичное логическое выражение&#45;60 -->
<g id="node60" class="node">
<title>Первичное логическое выражение&#45;60</title>
<polygon fill="none" stroke="black" points="1500,-324 1226,-324 1226,-288 1500,-288 1500,-324"/>
<text text-anchor="middle" x="1363" y="-301.32" font-family="Times,serif" font-size="14.00">Первичное логическое выражение</text>
</g>
<!-- Вторичное логическое выражение&#45;59&#45;&gt;Первичное логическое выражение&#45;60 -->
<g id="edge52" class="edge">
<title>Вторичное логическое выражение&#45;59&#45;&gt;Первичное логическое выражение&#45;60</title>
<path fill="none" stroke="black" d="M1363,-359.7C1363,-352.41 1363,-343.73 1363,-335.54"/>
<polygon fill="black" stroke="black" points="1366.5,-335.62 1363,-325.62 1359.5,-335.62 1366.5,-335.62"/>
</g>
<!-- a&#45;61 -->
<g id="node61" class="node">
<title>a&#45;61</title>
<ellipse fill="none" stroke="black" cx="1363" cy="-234" rx="27" ry="18"/>
<text text-anchor="middle" x="1363" y="-229.32" font-family="Times,serif" font-size="14.00">a</text>
</g>
<!-- Первичное логическое выражение&#45;60&#45;&gt;a&#45;61 -->
<g id="edge51" class="edge">
<title>Первичное логическое выражение&#45;60&#45;&gt;a&#45;61</title>
<path fill="none" stroke="black" d="M1363,-287.7C1363,-280.41 1363,-271.73 1363,-263.54"/>
<polygon fill="black" stroke="black" points="1366.5,-263.62 1363,-253.62 1359.5,-263.62 1366.5,-263.62"/>
</g>
<!-- Вторичное логическое выражение&#45;64 -->
<g id="node64" class="node">
<title>Вторичное логическое выражение&#45;64</title>
<polygon fill="none" stroke="black" points="1789.88,-396 1518.12,-396 1518.12,-360 1789.88,-360 1789.88,-396"/>
<text text-anchor="middle" x="1654" y="-373.32" font-family="Times,serif" font-size="14.00">Вторичное логическое выражение</text>
</g>
<!-- Логический одночлен&#45;63&#45;&gt;Вторичное логическое выражение&#45;64 -->
<g id="edge58" class="edge">
<title>Логический одночлен&#45;63&#45;&gt;Вторичное логическое выражение&#45;64</title>
<path fill="none" stroke="black" d="M1645.72,-431.7C1646.88,-424.32 1648.26,-415.52 1649.56,-407.25"/>
<polygon fill="black" stroke="black" points="1652.98,-408.02 1651.08,-397.6 1646.07,-406.93 1652.98,-408.02"/>
</g>
<!-- Первичное логическое выражение&#45;65 -->
<g id="node65" class="node">
<title>Первичное логическое выражение&#45;65</title>
<polygon fill="none" stroke="black" points="1792,-324 1518,-324 1518,-288 1792,-288 1792,-324"/>
<text text-anchor="middle" x="1655" y="-301.32" font-family="Times,serif" font-size="14.00">Первичное логическое выражение</text>
</g>
<!-- Вторичное логическое выражение&#45;64&#45;&gt;Первичное логическое выражение&#45;65 -->
<g id="edge57" class="edge">
<title>Вторичное логическое выражение&#45;64&#45;&gt;Первичное логическое выражение&#45;65</title>
<path fill="none" stroke="black" d="M1654.25,-359.7C1654.35,-352.41 1654.48,-343.73 1654.59,-335.54"/>
<polygon fill="black" stroke="black" points="1658.09,-335.67 1654.73,-325.62 1651.09,-335.57 1658.09,-335.67"/>
</g>
<!-- false&#45;66 -->
<g id="node66" class="node">
<title>false&#45;66</title>
<ellipse fill="none" stroke="black" cx="1655" cy="-234" rx="34.9" ry="18"/>
<text text-anchor="middle" x="1655" y="-229.32" font-family="Times,serif" font-size="14.00">false</text>
</g>
<!-- Первичное логическое выражение&#45;65&#45;&gt;false&#45;66 -->
<g id="edge56" class="edge">
<title>Первичное логическое выражение&#45;65&#45;&gt;false&#45;66</title>
<path fill="none" stroke="black" d="M1655,-287.7C1655,-280.41 1655,-271.73 1655,-263.54"/>
<polygon fill="black" stroke="black" points="1658.5,-263.62 1655,-253.62 1651.5,-263.62 1658.5,-263.62"/>
</g>
</g>
</svg>
